HIERARCHY
ROOT Hips
{
  OFFSET -8.30562 98.0414 -44.1494
  CHANNELS 6 Xposition Yposition Zposition Zrotation Xrotation Yrotation
  JOINT ToSpine
  {
    OFFSET -2.69724 7.43032 -0.144315
    CHANNELS 3 Zrotation Xrotation Yrotation
    JOINT Spine
    {
      OFFSET -0.0310711 10.7595 1.96963
      CHANNELS 3 Zrotation Xrotation Yrotation
      JOINT Spine1
      {
        OFFSET 13.1342 3.43533 0.764692
        CHANNELS 3 Zrotation Xrotation Yrotation
        JOINT Neck
        {
          OFFSET 29.8703 7.82586 -0.130764
          CHANNELS 3 Zrotation Xrotation Yrotation
          JOINT Head
          {
            OFFSET 9.52751 0.295786 -0.907742
            CHANNELS 3 Zrotation Xrotation Yrotation
            End Site
            {
              OFFSET 16.4037 0.713936 2.7358
            }
          }
        }
        JOINT LeftShoulder
        {
          OFFSET 27.5574 4.95586 2.47156
          CHANNELS 3 Zrotation Xrotation Yrotation
          JOINT LeftArm
          {
            OFFSET 1.20734 -0.998971 20.1238
            CHANNELS 3 Zrotation Xrotation Yrotation
            JOINT LeftForeArm
            {
              OFFSET 26.8049 -0.0536703 -0.155908
              CHANNELS 3 Zrotation Xrotation Yrotation
              JOINT LeftHand
              {
                OFFSET 26.6817 0 0.320147
                CHANNELS 3 Zrotation Xrotation Yrotation
                End Site
                {
                  OFFSET 18.6119 0 0.382219
                }
              }
            }
          }
        }
        JOINT RightShoulder
        {
          OFFSET 27.5927 4.71444 -2.65209
          CHANNELS 3 Zrotation Xrotation Yrotation
          JOINT RightArm
          {
            OFFSET 2.83739 -1.17114 -18.7564
            CHANNELS 3 Zrotation Xrotation Yrotation
            JOINT RightForeArm
            {
              OFFSET 28.839 -0.0548439 1.22491
              CHANNELS 3 Zrotation Xrotation Yrotation
              JOINT RightHand
              {
                OFFSET 26.5114 0 -0.101894
                CHANNELS 3 Zrotation Xrotation Yrotation
                End Site
                {
                  OFFSET 18.2168 0 0
                }
              }
            }
          }
        }
      }
    }
  }
  JOINT LeftUpLeg
  {
    OFFSET -4.76168 -1.9167 -10.2353
    CHANNELS 3 Zrotation Xrotation Yrotation
    JOINT LeftLeg
    {
      OFFSET 2.55951 -42.0585 -8.02213
      CHANNELS 3 Zrotation Xrotation Yrotation
      JOINT LeftFoot
      {
        OFFSET 3.16357 -42.5282 -3.95426
        CHANNELS 3 Zrotation Xrotation Yrotation
        JOINT LeftToeBase
        {
          OFFSET 0.346054 -6.02161 12.8035
          CHANNELS 3 Zrotation Xrotation Yrotation
          End Site
          {
            OFFSET 0.134235 -1.35082 5.13018
          }
        }
      }
    }
  }
  JOINT RightUpLeg
  {
    OFFSET -4.94151 -1.41743 10.6446
    CHANNELS 3 Zrotation Xrotation Yrotation
    JOINT RightLeg
    {
      OFFSET -2.56294 -42.0364 -7.94377
      CHANNELS 3 Zrotation Xrotation Yrotation
      JOINT RightFoot
      {
        OFFSET -3.0952 -42.555 -4.02241
        CHANNELS 3 Zrotation Xrotation Yrotation
        JOINT RightToeBase
        {
          OFFSET -0.0828122 -6.13587 12.8035
          CHANNELS 3 Zrotation Xrotation Yrotation
          End Site
          {
            OFFSET -0.131328 -1.35082 5.13018
          }
        }
      }
    }
  }
}
MOTION
Frames:	15
Frame Time:	0.00833333
-10.9611 95.0295 29.1289 -7.45757 -67.778 -98.252 -70.1915 0 88.8779 91.9485 73.2029 -2.15341 2.89454 22.8088 0.992177 -153.789 20.5819 175.221 -154.89 59.7626 -173.807 -0.377903 -15.9113 -35.588 -67.0679 46.7528 -83.3871 11.4603 16.5734 -34.9909 0.420957 0.00057545 0.35866 -2.11091 7.14954 43.8711 -63.5183 -29.4709 100.84 10.1331 -13.5446 37.4323 0.58676 0.000331242 0.0646654 -28.467 2.55828 97.5116 -4.37726 54.22 -6.43537 -0.724987 -6.3088 -0.532561 9.60767 -19.62 16.1294 -49.76 7.75641 89.4699 -0.814534 34.1745 -0.517957 -6.29125 -18.265 1.39117 0.581038 -1.22835 -2.92193 
-10.9954 95.0266 30.028 -7.83473 -67.5339 -98.6778 -70.1915 0 88.8779 92.2698 73.3885 -2.31091 2.60993 23.0433 0.837981 -153.964 20.5983 175.419 -155.27 59.8086 -173.538 -0.374105 -15.8888 -35.6232 -67.254 46.9629 -82.8511 11.3698 16.2106 -35.357 0.420957 0.000575447 0.35866 -2.11501 7.22809 43.6001 -63.4149 -29.336 101.234 10.2387 -13.4034 38.0093 0.58676 0.000331245 0.0646654 -27.7947 2.51721 97.7135 -3.99862 51.8293 -6.87422 -0.807096 -6.39898 -0.535007 9.80946 -19.8564 17.3665 -50.3109 7.47113 88.7691 -1.00418 33.8067 0.480419 -6.18676 -18.7341 1.40674 0.524433 -0.85875 -2.77367 
-11.0258 95.0125 30.9326 -8.21638 -67.3235 -99.0795 -70.1915 0 88.8779 92.4887 73.5577 -2.34612 2.41737 23.2609 0.661574 -154.151 20.6175 175.633 -155.653 59.8588 -173.243 -0.374297 -15.8775 -35.6821 -67.4419 47.142 -82.3701 11.2477 15.8675 -35.6259 0.420957 0.000575445 0.35866 -2.11915 7.30484 43.3443 -63.3076 -29.1256 101.664 10.3678 -13.3252 38.5234 0.58676 0.000331248 0.0646654 -27.2267 2.47053 97.8204 -3.7109 49.3521 -6.93548 -0.688542 -6.43754 -0.547727 9.93989 -20.0183 17.712 -50.9264 7.2124 88.0847 -1.14544 33.4043 1.40308 -6.19682 -19.1158 1.41515 0.472432 -0.67569 -2.55665 
-11.0531 94.9811 31.8628 -8.60227 -67.158 -99.4466 -70.1915 0 88.8779 92.5659 73.7051 -2.2093 2.34493 23.4539 0.458142 -154.368 20.6501 175.901 -156.099 59.9295 -172.856 -0.370387 -15.8506 -35.7364 -67.6163 47.2778 -81.9747 11.0637 15.5165 -35.7642 0.420957 0.000575443 0.35866 -2.12381 7.36912 43.1512 -63.19 -28.7973 102.142 10.5265 -13.3261 38.9523 0.58676 0.00033125 0.0646654 -26.7861 2.42675 97.8365 -3.40835 46.7365 -6.53035 -0.2078 -6.37904 -0.579005 9.94323 -20.0746 16.6776 -51.6214 6.98992 87.3475 -1.22594 32.9578 2.22146 -6.38444 -19.3851 1.4129 0.417329 -0.744933 -2.1731 
-11.0762 94.9277 32.8294 -8.99806 -67.0142 -99.7926 -70.1915 0 88.8779 92.5476 73.8372 -1.95001 2.34756 23.6289 0.240072 -154.615 20.6892 176.217 -156.605 60.0119 -172.395 -0.360259 -15.7992 -35.7887 -67.7721 47.3845 -81.6443 10.8271 15.1461 -35.8092 0.420957 0.00057544 0.35866 -2.12964 7.41381 43.0532 -63.0675 -28.3766 102.644 10.6918 -13.3636 39.3185 0.58676 0.000331252 0.0646654 -26.4402 2.38844 97.7763 -3.02426 43.9901 -5.8657 0.528954 -6.22471 -0.621284 9.87186 -20.0473 14.7479 -52.3593 6.75034 86.5442 -1.25748 32.4845 2.99036 -6.70448 -19.5769 1.40326 0.368744 -0.982937 -1.70412 
-11.0953 94.8566 33.82 -9.40866 -66.8848 -100.141 -70.1915 0 88.8779 92.4736 73.9607 -1.63006 2.39614 23.7974 0.00876858 -154.856 20.7157 176.503 -157.042 60.075 -171.992 -0.348147 -15.7383 -35.8506 -67.9411 47.4839 -81.3341 10.6058 14.8246 -35.8101 0.420957 0.000575438 0.35866 -2.13655 7.44587 43.0183 -62.96 -27.9348 103.14 10.8724 -13.4317 39.6563 0.58676 0.000331253 0.0646654 -26.1629 2.34365 97.6189 -2.59897 41.2132 -5.17558 1.23815 -6.07584 -0.661566 9.79681 -19.9819 12.6522 -53.1297 6.48147 85.7721 -1.26005 31.9991 3.734 -7.04958 -19.7212 1.39137 0.34537 -1.30468 -1.30853 
-11.1123 94.775 34.8193 -9.83793 -66.762 -100.513 -70.1915 0 88.8779 92.3856 74.0826 -1.31297 2.4617 23.9711 -0.23443 -155.052 20.7109 176.681 -157.281 60.0895 -171.782 -0.335498 -15.6766 -35.9077 -68.1563 47.5971 -80.9979 10.4665 14.6206 -35.8144 0.420957 0.000575436 0.35866 -2.144 7.47579 42.9978 -62.8839 -27.5446 103.607 11.0768 -13.5242 40 0.58676 0.000331255 0.0646654 -25.9281 2.27929 97.3441 -2.23539 38.5132 -4.6479 1.63584 -6.03373 -0.686884 9.7718 -19.959 11.1161 -53.9197 6.21686 85.1326 -1.25361 31.5157 4.4766 -7.31236 -19.8482 1.38236 0.360058 -1.62505 -1.14522 
-11.1292 94.6905 35.8122 -10.2963 -66.6348 -100.918 -70.1915 0 88.8779 92.2755 74.2068 -0.97778 2.54081 24.1588 -0.503912 -155.182 20.6646 176.701 -157.228 60.0382 -171.853 -0.323836 -15.6233 -35.9451 -68.4586 47.7293 -80.5937 10.4449 14.5788 -35.834 0.420957 0.000575434 0.35866 -2.15134 7.51409 42.9428 -62.871 -27.2484 104.027 11.3417 -13.6714 40.3789 0.58676 0.000331257 0.0646654 -25.7434 2.1807 96.8865 -2.03347 35.8498 -4.23589 1.55671 -6.16666 -0.690097 9.79653 -20.0165 10.3007 -54.7271 6.02752 84.6366 -1.23842 31.0132 5.25016 -7.4633 -19.9537 1.3773 0.414335 -1.92367 -1.28476 
-11.146 94.6061 36.7927 -10.7785 -66.5099 -101.342 -70.1915 0 88.8779 92.1264 74.3286 -0.602105 2.64798 24.3521 -0.795692 -155.27 20.5888 176.612 -156.971 59.9401 -172.116 -0.316094 -15.5897 -35.9603 -68.8205 47.8686 -80.1548 10.5 14.6535 -35.8431 0.420957 0.000575434 0.35866 -2.15819 7.56619 42.8288 -62.9005 -27.0012 104.423 11.6526 -13.8649 40.7687 0.58676 0.000331259 0.0646654 -25.6185 2.04993 96.2793 -1.93111 33.1899 -3.85471 1.18204 -6.40686 -0.679358 9.84236 -20.1182 9.82904 -55.5537 5.91488 84.2167 -1.20429 30.4925 6.03292 -7.55992 -20.0258 1.37355 0.496667 -2.24501 -1.63316 
-11.1617 94.5175 37.7696 -11.265 -66.4064 -101.778 -70.1915 0 88.8779 91.9692 74.4429 -0.250158 2.78083 24.5374 -1.08071 -155.349 20.4983 176.494 -156.656 59.8214 -172.439 -0.310687 -15.5681 -35.9607 -69.1729 48.0106 -79.7478 10.5818 14.7779 -35.8318 0.420957 0.000575433 0.35866 -2.1648 7.62569 42.6856 -62.9088 -26.7439 104.833 11.94 -14.0411 41.1228 0.58676 0.00033126 0.0646654 -25.5301 1.90353 95.6484 -1.84632 30.6576 -3.5976 0.747544 -6.6515 -0.664656 9.90901 -20.2545 9.61717 -56.3919 5.83398 83.8651 -1.15931 30.001 6.77021 -7.6254 -20.0826 1.37072 0.597033 -2.60112 -2.10261 
-11.1774 94.4207 38.7497 -11.7383 -66.3432 -102.218 -70.1915 0 88.8779 91.8369 74.5451 0.011584 2.93626 24.7011 -1.32963 -155.45 20.4084 176.425 -156.429 59.7093 -172.692 -0.302417 -15.5383 -35.9465 -69.4456 48.1524 -79.441 10.6403 14.8856 -35.7902 0.420957 0.000575432 0.35866 -2.17152 7.68539 42.5461 -62.8352 -26.415 105.292 12.132 -14.1387 41.3933 0.58676 0.000331261 0.0646654 -25.4544 1.76793 95.1171 -1.71733 28.3784 -3.54697 0.488714 -6.79778 -0.655986 9.99712 -20.4138 9.58146 -57.2355 5.73439 83.5812 -1.11627 29.587 7.40964 -7.68295 -20.1421 1.36843 0.706741 -3.0041 -2.60529 
-11.1941 94.3118 39.7396 -12.1744 -66.3403 -102.642 -70.1915 0 88.8779 91.7449 74.6239 0.145347 3.13201 24.8293 -1.5357 -155.596 20.3149 176.424 -156.319 59.6025 -172.856 -0.286102 -15.4801 -35.9179 -69.6013 48.3056 -79.2865 10.6593 14.9606 -35.7053 0.420957 0.000575432 0.35866 -2.17881 7.73803 42.443 -62.6341 -25.9759 105.831 12.1817 -14.1142 41.5603 0.58676 0.000331262 0.0646654 -25.4002 1.6398 94.699 -1.55763 26.3512 -3.7644 0.505434 -6.77279 -0.655442 10.1241 -20.6142 9.80298 -58.1066 5.61962 83.3658 -1.08116 29.2404 7.92355 -7.7534 -20.2156 1.36583 0.824693 -3.43325 -3.16635 
-11.2157 94.1932 40.7391 -12.5934 -66.3824 -103.065 -70.1915 0 88.8779 91.6768 74.6856 0.189832 3.3626 24.9329 -1.71384 -155.766 20.2124 176.449 -156.252 59.4893 -172.995 -0.254185 -15.3672 -35.855 -69.6818 48.4694 -79.2393 10.6664 15.038 -35.5857 0.420957 0.000575431 0.35866 -2.18712 7.78198 42.3856 -62.3532 -25.4617 106.415 12.1345 -14.0114 41.6514 0.58676 0.000331261 0.0646654 -25.3751 1.5149 94.3329 -1.43292 24.5219 -4.16937 0.659716 -6.64653 -0.657884 10.2887 -20.8536 10.2937 -58.9994 5.5252 83.2192 -1.05316 28.9448 8.34786 -7.8195 -20.2912 1.36338 0.950471 -3.88948 -3.81687 
-11.2403 94.066 41.7453 -13.0431 -66.4361 -103.531 -70.1915 0 88.8779 91.6189 74.7515 0.193099 3.59002 25.0357 -1.86709 -155.924 20.1144 176.489 -156.211 59.383 -173.106 -0.211871 -15.2173 -35.7648 -69.7356 48.6229 -79.2219 10.6765 15.1273 -35.4539 0.420957 0.000575431 0.35866 -2.19623 7.82093 42.3563 -62.0707 -24.9242 106.977 12.0577 -13.9004 41.6888 0.58676 0.000331261 0.0646654 -25.3525 1.41999 94.0295 -1.35134 22.9363 -4.63512 0.830099 -6.53053 -0.66246 10.4609 -21.0899 10.8652 -59.8666 5.44397 83.1449 -1.03749 28.7384 8.72656 -7.84727 -20.3527 1.36264 1.07788 -4.41754 -4.47799 
-11.261 93.9235 42.7609 -13.5688 -66.4675 -104.08 -70.1915 0 88.8779 91.5562 74.843 0.204187 3.7766 25.1616 -1.99865 -156.037 20.0346 176.531 -156.181 59.2966 -173.185 -0.172738 -15.0756 -35.6869 -69.8123 48.7447 -79.1552 10.7048 15.2385 -35.3323 0.420957 0.000575431 0.35866 -2.20569 7.85559 42.3473 -61.8601 -24.42 107.457 12.0187 -13.8506 41.6946 0.58676 0.000331261 0.0646654 -25.3058 1.37692 93.8006 -1.30199 21.64 -5.04252 0.895092 -6.53632 -0.668314 10.6056 -21.2838 11.3272 -60.6614 5.36691 83.1465 -1.03938 28.659 9.10354 -7.80268 -20.3834 1.36517 1.20141 -5.06237 -5.07103 
